<?xml version="1.0" encoding="UTF-8" standalone="no"?>
<!-- Created with Inkscape (http://www.inkscape.org/) -->
<svg
   xmlns:svg="http://www.w3.org/2000/svg"
   xmlns="http://www.w3.org/2000/svg"
   version="1.0"
   width="187"
   height="86"
   id="svg2">
  <defs
     id="defs33" />
  <path
     d="M 39.859,0.223 L 39.488,1.68 L 35.23,1.727 L 35.23,1.727 C 34.418,1.727 33.886,4.016 34.511,4.016 C 34.511,4.016 37.984,4.25 37.984,4.25 C 40.179,4.34 38.422,9.524 36.176,9.524 L 36.176,9.524 L 31.246,9.594 L 31.617,8.114 L 36.176,8.043 L 36.176,8.043 C 37.219,8.02 38.027,5.637 37.101,5.637 C 35.808,5.637 34.996,5.543 34.418,5.543 C 32.844,5.543 32.59,4.641 32.59,3.02 C 32.59,1.703 34,0.223 35.437,0.223 L 35.437,0.223 L 39.859,0.223 L 39.859,0.223 z M 2.453,6.586 L 1.761,9.547 L 0,9.547 L 1.992,0.242 L 6.019,0.242 L 6.019,0.242 C 6.668,0.242 8.496,0.637 8.75,1.586 C 9.191,3.114 8.242,5.407 7.523,5.867 C 7.082,6.145 6.344,6.586 5.07,6.586 L 5.07,6.586 L 2.453,6.586 L 2.453,6.586 z M 2.754,5.082 L 4.906,5.082 L 4.906,5.082 C 6.09,5.082 6.644,5.012 7.035,3.578 C 7.222,2.836 7.293,1.774 5.648,1.774 L 5.648,1.774 L 3.402,1.774 L 2.754,5.082 L 2.754,5.082 z M 14.789,1.657 C 13.332,1.657 12.383,2.535 12.199,3.602 L 12.199,3.602 L 11.711,6.032 L 11.711,6.032 C 11.48,7.258 11.597,8.067 13.332,8.067 C 14.883,8.067 15.648,7.719 16.019,6.262 L 16.019,6.262 L 16.64,3.832 L 16.64,3.832 C 16.898,2.051 16.504,1.657 14.789,1.657 L 14.789,1.657 L 14.789,1.657 z M 15.023,0.242 L 15,0.242 L 15,0.242 C 12.66,0.242 10.926,1.239 10.484,3.739 C 9.953,6.68 8.195,9.547 12.777,9.547 C 13.91,9.547 16.019,9.387 16.527,8.668 C 17.429,7.328 18.379,4.364 18.379,3.391 C 18.379,1.032 17.777,0.242 15.023,0.242 L 15.023,0.242 L 15.023,0.242 z M 21.109,0.242 L 22.89,0.242 L 21.273,8.067 L 25.531,8.067 L 25.207,9.547 L 19.14,9.547 L 21.109,0.242 L 21.109,0.242 z M 29.047,0.242 L 30.785,0.242 L 28.816,9.547 L 27.058,9.547 L 29.047,0.242 L 29.047,0.242 z M 42.636,0.242 L 44.441,0.242 L 43.605,4.063 L 47.914,4.063 L 48.699,0.242 L 50.457,0.242 L 48.515,9.547 L 46.754,9.547 L 47.543,5.567 L 43.328,5.567 L 42.472,9.547 L 40.715,9.547 L 42.636,0.242 L 42.636,0.242 z M 57.172,6.516 L 60.273,6.516 L 59.715,1.586 L 57.172,6.516 L 57.172,6.516 z M 58.676,0.242 L 61.246,0.242 L 62.426,9.547 L 60.621,9.547 L 60.41,7.86 L 56.453,7.86 L 55.504,9.547 L 53.652,9.547 L 58.676,0.242 L 58.676,0.242 z M 66.011,0.242 L 67.726,0.242 L 65.781,9.547 L 64.023,9.547 L 66.011,0.242 L 66.011,0.242 z M 74.32,1.774 L 71.82,1.774 L 71.152,5.035 L 73.719,5.035 L 73.719,5.035 C 74.855,5.035 75.57,4.504 75.664,3.438 C 75.758,2.352 75.664,1.774 74.32,1.774 L 74.32,1.774 L 74.32,1.774 z M 74.922,0.242 C 78.625,0.242 77.98,5.707 75.039,5.778 C 77.074,5.731 76.035,8.485 75.804,9.547 L 75.804,9.547 L 74.043,9.547 L 74.32,8.184 L 74.32,8.184 C 74.531,7.117 74.597,6.516 73.14,6.516 L 73.14,6.516 L 70.851,6.516 L 70.179,9.547 L 68.441,9.547 L 70.41,0.242 L 74.922,0.242 L 74.922,0.242 z M 80.222,0.242 L 78.258,9.547 L 84.32,9.547 L 84.621,8.067 L 80.363,8.067 L 81.984,0.242 L 80.222,0.242 L 80.222,0.242 z M 88.094,0.242 L 89.851,0.242 L 87.929,9.547 L 86.172,9.547 L 88.094,0.242 L 88.094,0.242 z M 92.492,0.242 L 95.383,0.242 L 97.699,8.067 L 97.769,8.067 L 99.226,0.242 L 100.984,0.242 L 99.039,9.547 L 96.101,9.547 L 93.879,1.774 L 93.808,1.774 L 92.304,9.547 L 90.57,9.547 L 92.492,0.242 L 92.492,0.242 z M 118.808,0.223 L 118.437,1.68 L 114.179,1.727 L 114.179,1.727 C 113.367,1.727 112.836,4.016 113.461,4.016 C 113.461,4.016 116.933,4.25 116.933,4.25 C 119.133,4.34 117.371,9.524 115.129,9.524 L 115.129,9.524 L 110.199,9.594 L 110.566,8.114 L 115.129,8.043 L 115.129,8.043 C 116.168,8.02 116.98,5.637 116.054,5.637 C 114.758,5.637 113.945,5.543 113.367,5.543 C 111.793,5.543 111.539,4.641 111.539,3.02 C 111.539,1.703 112.953,0.223 114.386,0.223 L 114.386,0.223 L 118.808,0.223 L 118.808,0.223 z M 101.609,9.547 L 103.531,0.242 L 109.804,0.242 L 109.551,1.774 L 104.941,1.774 L 104.48,4.133 L 108.785,4.133 L 108.508,5.614 L 104.226,5.614 L 103.672,8.067 L 108.23,8.067 L 107.929,9.547 L 101.609,9.547 z "
     style="fill:#1c2d5b;fill-opacity:1;fill-rule:evenodd;stroke-width:0;stroke-linecap:butt;stroke-linejoin:miter;stroke-miterlimit:2.61310005"
     id="path14" />
  <path
     d="M 96.355,57.344 C 96.797,55.864 97.004,54.43 97.121,52.969 C 97.492,47.461 93.719,41.235 85.965,40.309 L 85.965,40.309 L 82.074,40.309 L 82.074,40.309 C 74.39,41.235 70.894,47.461 70.894,52.969 C 70.894,54.473 71.219,56.348 71.73,57.875 C 73.14,61.696 76.265,65.004 81.984,65.629 C 88.789,65.887 93.785,64.379 96.355,57.344 L 96.355,57.344 L 96.355,57.344 z M 85.617,19.989 L 187.086,19.989 L 181.789,40.309 L 161.14,40.309 L 148.898,86 L 126.121,86 L 138.367,40.309 L 116.933,40.309 L 116.933,40.309 C 119.293,44.453 120.566,48.782 120.265,52.969 C 119.246,68.063 110.824,85.375 85.039,85.953 L 85.039,85.953 L 85.039,85.953 L 23.054,85.953 L 23.054,86 L 0.277,86 L 17.961,20.012 L 40.738,20.012 L 28.515,65.629 L 49.418,65.629 L 49.418,65.629 C 47.844,61.512 47.101,57.16 47.101,52.969 C 47.101,37.602 58.836,20.012 83.672,20.012 C 84.32,20.012 84.945,20.012 85.594,20.055 L 85.594,20.055 L 85.617,19.989 z "
     style="fill:#1c2d5b;fill-opacity:1;fill-rule:evenodd;stroke-width:0;stroke-linecap:butt;stroke-linejoin:miter;stroke-miterlimit:2.61310005"
     id="path18" />
  <path
     d="M 96.449,56.996 L 96.195,57.645 L 83.277,57.645 L 87.191,60.446 L 87.191,60.446 C 88.672,61.512 88.765,64.125 88.023,65.145 L 88.023,65.145 L 80.64,57.645 L 71.73,57.668 L 71.59,57.321 L 71.59,57.321 C 74.644,56.512 77.609,55.563 80.293,54.684 L 80.293,54.684 L 87.027,40.473 L 87.027,40.473 C 87.746,41.93 89.668,43.34 88.277,45.539 L 88.277,45.539 L 83.047,53.805 L 83.047,53.805 C 86.148,52.969 86.914,56.024 87.746,56.606 C 88.394,57.043 90.152,56.973 91.148,56.766 C 92.191,56.535 91.219,55.469 92.097,55.469 C 96.379,55.469 94.734,57.367 95.894,57.16 C 96.054,57.16 96.285,56.973 96.449,56.996 L 96.449,56.996 z "
     style="fill:#1c2d5b;fill-opacity:1;fill-rule:evenodd;stroke-width:0;stroke-linecap:butt;stroke-linejoin:miter;stroke-miterlimit:2.61310005"
     id="path22" />
</svg>
